<?xml version="1.1" encoding="UTF-8"?>
<svg version="2.0" viewBox="0 0 256 256" xmlns="http://www.w3.org/2000/svg">
	<mask id="mask0_509_15" style="mask-type:alpha" maskUnits="userSpaceOnUse" x="32" y="0" width="192" height="256">
		<path d="M40 256C35.5817 256 32 252.418 32 248V8C32 3.58173 35.5817 0 40 0H160L224 64V248C224 252.418 220.418 256 216 256H40Z" fill="#5E4430"/>
	</mask>
	<g mask="url(#mask0_509_15)">
		<path d="M40 256C35.5817 256 32 252.418 32 248V8C32 3.58173 35.5817 0 40 0H160L224 64V248C224 252.418 220.418 256 216 256H40Z" fill="#5E4430"/>
		<g filter="url(#filter0_d_509_15)">
			<path d="M224 64L160 0V56C160 60.4183 163.582 64 168 64H224Z" fill="#FFD090"/>
		</g>
	</g>
	<g filter="url(#filter1_d_509_15)">
		<path d="M131.402 81.4494C131.402 83.3544 129.879 84.8987 128 84.8987C126.121 84.8987 124.598 83.3544 124.598 81.4494C124.598 79.5443 126.121 78 128 78C129.879 78 131.402 79.5443 131.402 81.4494Z" fill="#FFD090"/>
		<path d="M128 91.7975C129.879 91.7975 131.402 93.3418 131.402 95.2468V102.146C131.402 104.051 129.879 105.595 128 105.595C126.121 105.595 124.598 104.051 124.598 102.146V95.2468C124.598 93.3418 126.121 91.7975 128 91.7975Z" fill="#FFD090"/>
		<path d="M128 119.392C126.121 119.392 124.598 117.848 124.598 115.943C124.598 114.038 126.121 112.494 128 112.494C129.879 112.494 131.402 114.038 131.402 115.943C131.402 117.848 129.879 119.392 128 119.392Z" fill="#FFD090"/>
		<path d="M139.762 101.042C140.171 100.87 140.609 100.782 141.051 100.782C141.493 100.782 141.931 100.87 142.34 101.042C142.749 101.213 143.12 101.465 143.433 101.782C143.746 102.099 143.994 102.476 144.163 102.89C144.332 103.304 144.419 103.748 144.419 104.197C144.419 105.102 144.064 105.971 143.433 106.611C142.801 107.252 141.944 107.611 141.051 107.611C140.158 107.611 139.301 107.252 138.67 106.611C138.038 105.971 137.683 105.102 137.683 104.197C137.683 103.748 137.77 103.304 137.939 102.89C138.109 102.476 138.357 102.099 138.67 101.782C138.982 101.465 139.354 101.213 139.762 101.042Z" fill="#FFD090"/>
		<path d="M108.049 113.104C108.681 112.463 109.537 112.104 110.43 112.104C111.324 112.104 112.18 112.463 112.812 113.104C113.444 113.744 113.798 114.613 113.798 115.518C113.799 115.967 113.711 116.411 113.542 116.825C113.373 117.24 113.125 117.616 112.812 117.933C112.499 118.25 112.128 118.502 111.719 118.673C111.311 118.845 110.873 118.933 110.43 118.933C109.988 118.933 109.55 118.845 109.142 118.673C108.733 118.502 108.362 118.25 108.049 117.933C107.736 117.616 107.488 117.24 107.319 116.825C107.15 116.411 107.062 115.967 107.062 115.518C107.062 114.613 107.417 113.744 108.049 113.104Z" fill="#FFD090"/>
		<path d="M123.587 127.911C124.735 126.747 126.285 126.083 127.908 126.059C129.595 126.034 131.219 126.702 132.413 127.911L171.161 167.198C175.09 171.185 172.307 177.998 166.748 178H89.2515C83.693 177.998 80.91 171.184 84.8393 167.198L123.587 127.911ZM128.933 130.366C128.716 130.323 128.496 130.301 128.275 130.301C127.406 130.301 126.537 130.637 125.873 131.31L117.748 139.548C116.422 140.893 116.422 143.074 117.748 144.419C119.075 145.764 121.226 145.764 122.552 144.419L128.351 138.539L162.91 173.579C164.237 174.924 166.387 174.924 167.714 173.579C169.04 172.234 169.04 170.054 167.714 168.709L130.859 131.341C130.317 130.791 129.638 130.467 128.933 130.366ZM114.158 147.525C113.526 146.884 112.67 146.525 111.776 146.525C110.883 146.524 110.027 146.884 109.395 147.525C108.763 148.165 108.408 149.034 108.408 149.939C108.408 150.388 108.495 150.832 108.665 151.246C108.834 151.66 109.082 152.037 109.395 152.354C109.708 152.671 110.079 152.923 110.487 153.094C110.896 153.266 111.334 153.354 111.776 153.354C112.67 153.354 113.526 152.994 114.158 152.354C114.789 151.713 115.144 150.845 115.144 149.939C115.144 149.034 114.789 148.165 114.158 147.525ZM100.655 160.487C100.023 159.847 99.1665 159.487 98.2733 159.487C97.3801 159.487 96.5235 159.847 95.892 160.487C95.2604 161.128 94.9056 161.996 94.9056 162.902C94.9055 163.808 95.2603 164.676 95.8919 165.317C96.5235 165.957 97.3801 166.317 98.2733 166.317C98.7156 166.317 99.1536 166.229 99.5622 166.057C99.9708 165.885 100.342 165.634 100.655 165.317C100.968 165 101.216 164.623 101.385 164.209C101.554 163.794 101.641 163.35 101.641 162.902C101.641 161.996 101.286 161.128 100.655 160.487Z" fill="#FFD090"/>
		<path d="M153.041 131.946C153.673 131.305 154.529 130.945 155.422 130.945C155.865 130.945 156.303 131.034 156.711 131.205C157.12 131.377 157.491 131.628 157.804 131.945C158.117 132.263 158.365 132.639 158.534 133.053C158.703 133.468 158.79 133.912 158.79 134.36C158.79 135.266 158.436 136.134 157.804 136.775C157.172 137.415 156.316 137.775 155.422 137.775C154.529 137.775 153.673 137.415 153.041 136.775C152.41 136.134 152.055 135.266 152.055 134.36C152.055 133.454 152.409 132.586 153.041 131.946Z" fill="#FFD090"/>
		<path d="M97.1893 137.448C97.598 137.277 98.0359 137.188 98.4782 137.188C99.3715 137.188 100.228 137.548 100.86 138.188C101.491 138.829 101.846 139.697 101.846 140.603C101.846 141.509 101.491 142.377 100.86 143.018C100.228 143.658 99.3714 144.018 98.4782 144.018C97.585 144.018 96.7284 143.658 96.0967 143.018C95.4651 142.377 95.1103 141.509 95.1102 140.603C95.1102 140.155 95.1973 139.711 95.3666 139.296C95.5358 138.882 95.7839 138.506 96.0967 138.188C96.4094 137.871 96.7807 137.62 97.1893 137.448Z" fill="#FFD090"/>
	</g>
	<defs>
		<filter id="filter0_d_509_15" x="128" y="-32" width="128" height="128" filterUnits="userSpaceOnUse" color-interpolation-filters="sRGB">
			<feFlood flood-opacity="0" result="BackgroundImageFix"/>
			<feColorMatrix in="SourceAlpha" type="matrix" values="0 0 0 0 0 0 0 0 0 0 0 0 0 0 0 0 0 0 127 0" result="hardAlpha"/>
			<feOffset/>
			<feGaussianBlur stdDeviation="16"/>
			<feComposite in2="hardAlpha" operator="out"/>
			<feColorMatrix type="matrix" values="0 0 0 0 0 0 0 0 0 0 0 0 0 0 0 0 0 0 0.5 0"/>
			<feBlend mode="normal" in2="BackgroundImageFix" result="effect1_dropShadow_509_15"/>
			<feBlend mode="normal" in="SourceGraphic" in2="effect1_dropShadow_509_15" result="shape"/>
		</filter>
		<filter id="filter1_d_509_15" x="67" y="62" width="122" height="132" filterUnits="userSpaceOnUse" color-interpolation-filters="sRGB">
			<feFlood flood-opacity="0" result="BackgroundImageFix"/>
			<feColorMatrix in="SourceAlpha" type="matrix" values="0 0 0 0 0 0 0 0 0 0 0 0 0 0 0 0 0 0 127 0" result="hardAlpha"/>
			<feOffset/>
			<feGaussianBlur stdDeviation="8"/>
			<feComposite in2="hardAlpha" operator="out"/>
			<feColorMatrix type="matrix" values="0 0 0 0 0 0 0 0 0 0 0 0 0 0 0 0 0 0 0.5 0"/>
			<feBlend mode="normal" in2="BackgroundImageFix" result="effect1_dropShadow_509_15"/>
			<feBlend mode="normal" in="SourceGraphic" in2="effect1_dropShadow_509_15" result="shape"/>
		</filter>
	</defs>
</svg>
